# xmcd CD database file
#
# Track frame offsets:
#	150
#	21864
#	40117
#	60952
#
# Disc length: 1008 seconds
#
# Revision: 0
# Processed by: cddbd v1.5.1PL0 Copyright (c) Steve Scherf et al.
# Submitted via: CDex 1.51
#
DISCID=2503ee04
DTITLE=彩音楽団 Arrange CD Vol.2 - トリビアの皿
DYEAR=1900
DGENRE=未分類 (日本)
TTITLE0=朝影
TTITLE1=森の泉〜瑠璃子
TTITLE2=神薙 -dissidents-
TTITLE3=テッド
EXTD=
EXTT0=
EXTT1=
EXTT2=
EXTT3=
PLAYORDER=
